<?xml version="1.0" encoding="UTF-8"?>
<svg version="1.1" xmlns="http://www.w3.org/2000/svg" width="79" height="86">
<path d="M0 0 C26.07 0 52.14 0 79 0 C79 28.38 79 56.76 79 86 C52.93 86 26.86 86 0 86 C0 57.62 0 29.24 0 0 Z " fill="#1C398E" transform="translate(0,0)"/>
<path d="M0 0 C2.52293712 1.43299354 4.95741124 2.96861134 7.39453125 4.54296875 C10.61888482 6.34609301 13.55449743 6.99390591 17.1875 7.48046875 C19 8 19 8 21 11 C21.44513502 15.21434054 21.32407803 19.45225831 21.3125 23.6875 C21.32861328 24.84701172 21.34472656 26.00652344 21.36132812 27.20117188 C21.36601324 35.4422883 20.55960391 41.27029145 15.8125 48.1875 C11.05508602 52.94491398 4.65346231 57.48851528 -2.125 58.4375 C-9.73831753 57.57793189 -16.68619059 53.44032868 -22 48 C-27.0305245 39.91234003 -27.18223619 32.79128318 -27.1875 23.4375 C-27.19974609 22.28830078 -27.21199219 21.13910156 -27.22460938 19.95507812 C-27.22654297 18.85486328 -27.22847656 17.75464844 -27.23046875 16.62109375 C-27.23457764 15.6148999 -27.23868652 14.60870605 -27.24291992 13.57202148 C-27 11 -27 11 -25 8 C-23.1875 7.48046875 -23.1875 7.48046875 -21 7.1875 C-16.99303739 6.44546989 -14.23157274 5.08368996 -10.8125 2.875 C-4.42769231 -1.10692308 -4.42769231 -1.10692308 0 0 Z " fill="#1E3B90" transform="translate(42,15)"/>
<path d="M0 0 C2.52293712 1.43299354 4.95741124 2.96861134 7.39453125 4.54296875 C10.61888482 6.34609301 13.55449743 6.99390591 17.1875 7.48046875 C19 8 19 8 21 11 C21.44513502 15.21434054 21.32407803 19.45225831 21.3125 23.6875 C21.32861328 24.84701172 21.34472656 26.00652344 21.36132812 27.20117188 C21.36601324 35.4422883 20.55960391 41.27029145 15.8125 48.1875 C11.05508602 52.94491398 4.65346231 57.48851528 -2.125 58.4375 C-9.73831753 57.57793189 -16.68619059 53.44032868 -22 48 C-27.0305245 39.91234003 -27.18223619 32.79128318 -27.1875 23.4375 C-27.19974609 22.28830078 -27.21199219 21.13910156 -27.22460938 19.95507812 C-27.22654297 18.85486328 -27.22847656 17.75464844 -27.23046875 16.62109375 C-27.23457764 15.6148999 -27.23868652 14.60870605 -27.24291992 13.57202148 C-27 11 -27 11 -25 8 C-23.1875 7.48046875 -23.1875 7.48046875 -21 7.1875 C-16.99303739 6.44546989 -14.23157274 5.08368996 -10.8125 2.875 C-4.42769231 -1.10692308 -4.42769231 -1.10692308 0 0 Z M-10.22265625 9.4921875 C-13.98874245 11.53678563 -17.81076525 12.2354205 -22 13 C-22.08782542 16.52067351 -22.14066643 20.04106144 -22.1875 23.5625 C-22.21263672 24.55314453 -22.23777344 25.54378906 -22.26367188 26.56445312 C-22.33635174 33.85666618 -21.18811285 38.26197388 -17.5 44.5625 C-13.63940705 48.32657813 -9.02113226 51.0358512 -4 53 C1.47305438 52.45269456 7.18294747 48.9339169 10.8828125 44.99609375 C14.53415379 40.20701568 16.13138204 36.78014837 16.09765625 30.67578125 C16.09443359 29.64775391 16.09121094 28.61972656 16.08789062 27.56054688 C16.07951172 26.48869141 16.07113281 25.41683594 16.0625 24.3125 C16.05798828 23.22904297 16.05347656 22.14558594 16.04882812 21.02929688 C16.03703743 18.35280915 16.02058063 15.67643223 16 13 C15.40759521 12.89187988 14.81519043 12.78375977 14.20483398 12.67236328 C9.5251694 11.74072145 5.94735236 10.78337048 2.0625 7.875 C-3.54459845 3.74137186 -4.95011828 5.54493484 -10.22265625 9.4921875 Z " fill="#88BEFA" transform="translate(42,15)"/>
</svg>
